<?xml version="1.0" encoding="UTF-8" standalone="no"?>
<!-- Created with Inkscape (http://www.inkscape.org/) -->

<svg
   xmlns:dc="http://purl.org/dc/elements/1.1/"
   xmlns:cc="http://creativecommons.org/ns#"
   xmlns:rdf="http://www.w3.org/1999/02/22-rdf-syntax-ns#"
   xmlns:svg="http://www.w3.org/2000/svg"
   xmlns="http://www.w3.org/2000/svg"
   xmlns:sodipodi="http://sodipodi.sourceforge.net/DTD/sodipodi-0.dtd"
   xmlns:inkscape="http://www.inkscape.org/namespaces/inkscape"
   width="210mm"
   height="210mm"
   viewBox="0 0 210 210"
   version="1.1"
   id="svg2437"
   inkscape:version="0.92.4 (5da689c313, 2019-01-14)"
   sodipodi:docname="ny-loading.svg">
  <defs
     id="defs2431" />
  <sodipodi:namedview
     id="base"
     pagecolor="#ffffff"
     bordercolor="#666666"
     borderopacity="1.0"
     inkscape:pageopacity="0.0"
     inkscape:pageshadow="2"
     inkscape:zoom="0.35"
     inkscape:cx="400"
     inkscape:cy="560"
     inkscape:document-units="mm"
     inkscape:current-layer="layer1"
     showgrid="false"
     inkscape:window-width="2160"
     inkscape:window-height="1271"
     inkscape:window-x="2869"
     inkscape:window-y="-11"
     inkscape:window-maximized="1" />
  <metadata
     id="metadata2434">
    <rdf:RDF>
      <cc:Work
         rdf:about="">
        <dc:format>image/svg+xml</dc:format>
        <dc:type
           rdf:resource="http://purl.org/dc/dcmitype/StillImage" />
        <dc:title></dc:title>
      </cc:Work>
    </rdf:RDF>
  </metadata>
  <g
     inkscape:label="Camada 1"
     inkscape:groupmode="layer"
     id="layer1"
     transform="translate(0,-87)">
    <g
       id="g2086"
       transform="matrix(12.528197,0,0,12.528197,6.74107,91.313114)">
      <path
         inkscape:connector-curvature="0"
         d="M 16,8 C 16,7.15 14.987,6.477 14.749,5.709 14.502,4.914 14.934,3.749 14.472,3.087 14.006,2.418 12.81,2.49 12.17,2.003 11.536,1.522 11.234,0.308 10.473,0.049 9.737,-0.2 8.813,0.588 8,0.588 7.185,0.588 6.262,-0.2 5.526,0.049 4.766,0.307 4.464,1.521 3.83,2.003 3.189,2.49 1.994,2.418 1.527,3.087 1.066,3.749 1.499,4.912 1.251,5.709 1.013,6.477 0,7.15 0,8 c 0,0.851 1.013,1.523 1.251,2.292 0.248,0.795 -0.185,1.96 0.276,2.622 0.467,0.668 1.662,0.597 2.304,1.084 0.633,0.481 0.934,1.694 1.696,1.954 0.734,0.249 1.658,-0.54 2.473,-0.54 0.813,0 1.737,0.789 2.473,0.539 0.761,-0.259 1.063,-1.473 1.697,-1.954 0.64,-0.487 1.836,-0.415 2.302,-1.084 0.462,-0.662 0.03,-1.826 0.277,-2.622 C 14.987,9.523 16,8.851 16,8 M 11.214,4.97 c -0.094,0.36 -0.2,0.547 -0.567,0.796 -0.372,0.251 -0.82,0.23 -0.82,0.23 v 1.56 l 0.759,0.615 -0.76,0.613 v 2.125 c 0,0 0.761,-0.436 1.232,-1.412 0,0 0.019,-0.054 0.064,-0.154 0.042,0.262 0.018,0.791 -0.278,1.471 -0.223,0.513 -0.629,1.005 -1.137,1.285 -0.902,0.5 -1.577,0.548 -2.303,0.398 C 6.555,12.322 5.786,11.845 5.259,11.013 4.889,10.429 4.724,9.748 4.739,9.015 4.769,7.577 5.84,6.335 7.076,5.872 7.227,5.816 7.287,5.779 7.5,5.759 7.401,5.826 7.288,5.912 7.148,6.005 6.751,6.266 6.41,6.787 6.265,7.188 l 2.398,-1.07 v 3.354 l -1.935,0.969 c 0.22,0.306 0.891,0.769 1.462,0.833 0.976,0.108 1.546,-0.317 1.546,-0.317 V 8.784 L 8.981,8.171 9.737,7.558 V 5.996 C 9.326,5.947 8.826,5.812 8.532,5.74 8.102,5.634 6.669,5.23 6.442,5.197 6.218,5.164 5.939,5.175 5.771,5.324 5.603,5.477 5.5,5.742 5.57,5.982 5.611,6.119 5.705,6.199 5.775,6.275 5.775,6.275 5.692,6.269 5.543,6.178 5.272,6.017 5.066,5.699 5.042,5.307 5.01,4.793 5.222,4.33 5.644,4.019 6.012,3.783 6.429,3.631 6.914,3.701 7.62,3.801 8.569,4.199 9.416,4.402 9.743,4.482 9.997,4.509 10.227,4.375 10.335,4.297 10.524,4.098 10.369,3.833 10.188,3.522 9.844,3.529 9.552,3.475 9.803,3.422 9.858,3.422 10.047,3.44 c 0.241,0.02 0.618,0.139 0.901,0.389 0.303,0.292 0.371,0.737 0.266,1.141"
         id="path2082" />
      <path
         inkscape:connector-curvature="0"
         d="M 7.195,6.867 6.222,7.302 c 0,0 -0.248,0.556 -0.205,1.363 0.035,0.631 0.387,1.385 0.658,1.7 l 0.52,-0.26 z"
         id="path2084" />
    </g>
  </g>
</svg>
